<?xml version="1.0" encoding="utf-8"?>
<!-- Generator: Adobe Illustrator 15.0.0, SVG Export Plug-In . SVG Version: 6.00 Build 0)  -->
<!DOCTYPE svg PUBLIC "-//W3C//DTD SVG 1.1//EN" "http://www.w3.org/Graphics/SVG/1.1/DTD/svg11.dtd">
<svg version="1.1" id="Layer_1" xmlns="http://www.w3.org/2000/svg" xmlns:xlink="http://www.w3.org/1999/xlink" x="0px" y="0px"
	 width="20.469px" height="20.469px" viewBox="0 0 20.469 20.469" enable-background="new 0 0 20.469 20.469" xml:space="preserve">
<g>
	<path fill="none" d="M13.262,2.897c-0.947-0.391-1.972-0.596-3.027-0.596c-2.119,0-4.111,0.825-5.61,2.324
		s-2.324,3.491-2.324,5.609c0,2.047,0.772,3.975,2.176,5.455L13.262,2.897z"/>
	<path d="M17.471,2.997C15.538,1.064,12.968,0,10.234,0C7.5,0,4.93,1.064,2.997,2.998C1.064,4.93,0,7.5,0,10.234
		c0,2.734,1.064,5.304,2.997,7.237c1.933,1.934,4.503,2.998,7.237,2.998c2.733,0,5.304-1.064,7.236-2.998
		c1.934-1.933,2.998-4.503,2.998-7.237C20.469,7.5,19.404,4.93,17.471,2.997z M2.301,10.234c0-2.119,0.825-4.111,2.324-5.609
		s3.491-2.324,5.61-2.324c1.056,0,2.08,0.205,3.027,0.596L4.477,15.688C3.073,14.209,2.301,12.281,2.301,10.234z"/>
</g>
</svg>
