<svg xmlns="http://www.w3.org/2000/svg" viewBox="0 0 97 27.623"><path d="M97 27.623h-3.73c-3.687 0-6.687-4.524-8.917-13.448C82.29 5.9 79.8 3 78.3 3c-1.481 0-3.943 2.927-6.006 11.2 c-2.23 8.923-5.23 13.448-8.916 13.448s-6.687-4.524-8.918-13.448C52.444 5.9 50 3 48.5 3c-1.482 0-3.944 2.927-6.006 11.2 c-2.23 8.923-5.23 13.448-8.917 13.448s-6.686-4.524-8.916-13.448C22.598 5.9 20.1 3 18.7 3s-3.944 2.927-6.006 11.2 c-2.23 8.923-5.23 13.448-8.917 13.448H0v-3h3.73c1.482 0 3.945-2.927 6.007-11.175C11.968 4.5 15 0 18.7 0 s6.686 4.5 8.9 13.448c2.062 8.2 4.5 11.2 6 11.175c1.482 0 3.945-2.927 6.007-11.175C41.814 4.5 44.8 0 48.5 0 c3.687 0 6.7 4.5 8.9 13.448c2.063 8.2 4.5 11.2 6 11.175c1.481 0 3.943-2.927 6.006-11.175 C71.66 4.5 74.7 0 78.3 0c3.687 0 6.7 4.5 8.9 13.448c2.063 8.2 4.5 11.2 6 11.175H97V27.623z"/></svg>
