<?xml version="1.0" encoding="UTF-8" standalone="no"?>
<svg
   xmlns:dc="http://purl.org/dc/elements/1.1/"
   xmlns:cc="http://creativecommons.org/ns#"
   xmlns:rdf="http://www.w3.org/1999/02/22-rdf-syntax-ns#"
   xmlns:svg="http://www.w3.org/2000/svg"
   xmlns="http://www.w3.org/2000/svg"
   xmlns:sodipodi="http://sodipodi.sourceforge.net/DTD/sodipodi-0.dtd"
   xmlns:inkscape="http://www.inkscape.org/namespaces/inkscape"
   enable-background="new 0 0 56.693 56.693"
   height="21.407"
   id="Layer_1"
   version="1.1"
   viewBox="0 0 49.297 21.406999"
   width="49.297001"
   x="0px"
   xml:space="preserve"
   y="0px"
   inkscape:version="0.48.3.1 r9886"
   sodipodi:docname="1375834945_34-soundcloud.svg"><metadata
     id="metadata9"><rdf:RDF><cc:Work
         rdf:about=""><dc:format>image/svg+xml</dc:format><dc:type
           rdf:resource="http://purl.org/dc/dcmitype/StillImage" /><dc:title></dc:title></cc:Work></rdf:RDF></metadata><defs
     id="defs7" /><sodipodi:namedview
     pagecolor="#ffffff"
     bordercolor="#666666"
     borderopacity="1"
     objecttolerance="10"
     gridtolerance="10"
     guidetolerance="10"
     inkscape:pageopacity="0"
     inkscape:pageshadow="2"
     inkscape:window-width="1308"
     inkscape:window-height="711"
     id="namedview5"
     showgrid="false"
     fit-margin-top="0"
     fit-margin-left="0"
     fit-margin-right="0"
     fit-margin-bottom="0"
     inkscape:zoom="2.9435239"
     inkscape:cx="8.3464753"
     inkscape:cy="12.720501"
     inkscape:window-x="0"
     inkscape:window-y="25"
     inkscape:window-maximized="0"
     inkscape:current-layer="Layer_1" /><path
     d="m 2.381,20.262 c 0.104,0 0.188,-0.082 0.205,-0.199 L 3.137,15.733 2.586,11.305 C 2.569,11.188 2.484,11.108 2.38,11.108 c -0.104,0 -0.19,0.084 -0.205,0.197 0,0.002 -0.485,4.428 -0.485,4.428 l 0.485,4.33 c 0.015,0.115 0.102,0.199 0.206,0.199 z M 0.755,18.424 c 0,0 0,0 0,0.002 l 0,0 v -0.002 z m -0.197,0.193 c 0.1,0 0.181,-0.08 0.197,-0.191 L 1.182,15.733 0.755,12.995 C 0.74,12.882 0.658,12.802 0.558,12.802 c -0.103,0 -0.184,0.082 -0.198,0.195 L 0,15.733 0.36,18.424 c 0.014,0.113 0.096,0.193 0.198,0.193 z M 4.565,10.481 C 4.549,10.34 4.445,10.239 4.317,10.239 c -0.13,0 -0.234,0.102 -0.247,0.242 0,0.002 -0.46,5.254 -0.46,5.254 l 0.46,5.061 c 0.013,0.141 0.117,0.242 0.247,0.242 0.128,0 0.232,-0.102 0.247,-0.24 L 5.087,15.736 4.565,10.481 z m 1.706,10.757 c 0.15,0 0.274,-0.121 0.288,-0.283 l 0,0 0.494,-5.221 -0.494,-5.396 C 6.545,10.174 6.421,10.053 6.271,10.053 c -0.153,0 -0.278,0.121 -0.29,0.285 l -0.436,5.396 0.436,5.221 c 0.012,0.162 0.136,0.283 0.29,0.283 z m 1.968,0.086 c 0.176,0 0.318,-0.139 0.331,-0.326 V 21 L 9.036,15.734 8.57,10.726 C 8.558,10.54 8.415,10.4 8.239,10.4 c -0.178,0 -0.321,0.143 -0.332,0.328 l -0.41,5.006 0.41,5.264 c 0.011,0.188 0.153,0.326 0.332,0.326 z M 11.032,15.736 10.595,7.591 C 10.584,7.384 10.42,7.222 10.222,7.222 10.023,7.222 9.86,7.384 9.849,7.591 l -0.385,8.145 0.385,5.266 c 0.011,0.205 0.174,0.367 0.373,0.367 0.198,0 0.362,-0.162 0.373,-0.369 v 0.002 l 0.437,-5.266 z m 1.19,5.643 c 0.222,0 0.405,-0.182 0.416,-0.412 v 0.004 L 13.045,15.739 12.638,5.731 C 12.627,5.499 12.445,5.319 12.222,5.319 c -0.223,0 -0.405,0.18 -0.415,0.412 l -0.36,10.008 0.36,5.23 c 0.01,0.228 0.193,0.41 0.415,0.41 z M 14.239,4.442 c -0.249,0 -0.449,0.199 -0.458,0.455 l -0.336,10.842 0.336,5.178 c 0.008,0.252 0.209,0.451 0.458,0.451 0.246,0 0.447,-0.199 0.457,-0.453 l 0,0.004 0.379,-5.18 L 14.696,4.897 C 14.686,4.641 14.485,4.442 14.239,4.442 z m 2.031,16.937 c 0.272,0 0.491,-0.219 0.5,-0.496 l 0,0.002 0.35,-5.145 -0.35,-11.209 c -0.009,-0.279 -0.228,-0.496 -0.5,-0.496 -0.271,0 -0.491,0.217 -0.5,0.496 l -0.311,11.207 0.311,5.146 c 0.009,0.276 0.229,0.495 0.5,0.495 z m 2.049,-0.006 c 0.295,0 0.533,-0.238 0.541,-0.539 v 0.004 L 19.18,15.74 18.86,4.816 C 18.852,4.515 18.614,4.279 18.319,4.279 c -0.297,0 -0.535,0.236 -0.542,0.537 l -0.286,10.924 0.286,5.096 c 0.006,0.299 0.245,0.537 0.542,0.537 z M 21.258,15.74 20.966,5.215 c -0.008,-0.324 -0.265,-0.58 -0.584,-0.58 -0.321,0 -0.577,0.256 -0.584,0.582 l -0.261,10.523 0.262,5.066 c 0.006,0.32 0.262,0.576 0.583,0.576 0.319,0 0.576,-0.256 0.584,-0.582 v 0.006 l 0.292,-5.066 z m 1.203,5.653 c 0.339,0 0.619,-0.279 0.626,-0.623 v 0.004 L 23.35,15.743 23.087,3.22 C 23.08,2.876 22.8,2.597 22.461,2.597 c -0.34,0 -0.619,0.279 -0.625,0.623 L 21.6,15.74 c 0,0.01 0.236,5.033 0.236,5.033 0.006,0.34 0.285,0.62 0.625,0.62 z m 2.07,-19.974 c -0.363,0 -0.662,0.3 -0.668,0.667 l -0.273,13.657 0.273,4.959 c 0.006,0.361 0.305,0.66 0.668,0.66 0.363,0 0.662,-0.299 0.668,-0.664 v 0.004 L 25.496,15.743 25.199,2.085 C 25.194,1.718 24.895,1.419 24.531,1.419 z m 1.895,19.978 c 0.016,0.002 16.699,0.01 16.807,0.01 3.35,0 6.064,-2.715 6.064,-6.064 0,-3.349 -2.715,-6.062 -6.064,-6.062 -0.83,0 -1.623,0.168 -2.344,0.469 C 40.405,4.285 35.825,0 30.235,0 28.866,0 27.533,0.27 26.356,0.726 25.897,0.903 25.776,1.084 25.772,1.439 v 19.244 c 0.004,0.368 0.292,0.676 0.654,0.714 z"
     id="path3"
     inkscape:connector-curvature="0" /></svg>