<?xml version="1.0" encoding="utf-8"?>
<!-- Generator: Adobe Illustrator 15.0.0, SVG Export Plug-In . SVG Version: 6.00 Build 0)  -->
<!DOCTYPE svg PUBLIC "-//W3C//DTD SVG 1.1//EN" "http://www.w3.org/Graphics/SVG/1.1/DTD/svg11.dtd">
<svg version="1.1" id="Layer_1" xmlns="http://www.w3.org/2000/svg" xmlns:xlink="http://www.w3.org/1999/xlink" x="0px" y="0px"
	 width="30.246px" height="24.584px" viewBox="0 0 30.246 24.584" enable-background="new 0 0 30.246 24.584" xml:space="preserve">
<g id="twitter">
	<path d="M27.149,6.125c0.015,0.266,0.021,0.533,0.021,0.803c0,8.201-6.242,17.656-17.657,17.656c-3.504,0-6.768-1.027-9.513-2.787
		c0.484,0.057,0.979,0.086,1.479,0.086c2.908,0,5.584-0.992,7.707-2.656c-2.715-0.051-5.006-1.846-5.796-4.311
		c0.378,0.074,0.767,0.109,1.167,0.109c0.566,0,1.114-0.072,1.635-0.217c-2.84-0.568-4.979-3.08-4.979-6.084
		c0-0.025,0-0.053,0.001-0.08C2.05,9.109,3.007,9.389,4.024,9.422C2.358,8.307,1.264,6.41,1.264,4.256
		c0-1.137,0.306-2.204,0.84-3.12C5.166,4.89,9.737,7.361,14.896,7.619c-0.104-0.453-0.161-0.93-0.161-1.414
		C14.734,2.778,17.513,0,20.94,0c1.785,0,3.398,0.754,4.529,1.959c1.414-0.277,2.742-0.795,3.94-1.506
		c-0.465,1.449-1.446,2.666-2.729,3.433c1.258-0.149,2.453-0.483,3.565-0.977C29.417,4.157,28.362,5.25,27.149,6.125z"/>
</g>
</svg>
