<svg xmlns="http://www.w3.org/2000/svg" viewBox="0 0 30.246 24.584"><path d="M27.149 6.125c0.015 0.3 0 0.5 0 0.803c0 8.201-6.242 17.656-17.657 17.656c-3.504 0-6.768-1.027-9.513-2.787 c0.484 0.1 1 0.1 1.5 0.086c2.908 0 5.584-0.992 7.707-2.656c-2.715-0.051-5.006-1.846-5.796-4.311 c0.378 0.1 0.8 0.1 1.2 0.109c0.566 0 1.114-0.072 1.635-0.217c-2.84-0.568-4.979-3.08-4.979-6.084 c0-0.025 0-0.053 0.001-0.08C2.05 9.1 3 9.4 4 9.422C2.358 8.3 1.3 6.4 1.3 4.3 c0-1.137 0.306-2.204 0.84-3.12C5.166 4.9 9.7 7.4 14.9 7.619c-0.104-0.453-0.161-0.93-0.161-1.414 C14.734 2.8 17.5 0 20.9 0c1.785 0 3.4 0.8 4.5 1.959c1.414-0.277 2.742-0.795 3.94-1.506 c-0.465 1.449-1.446 2.666-2.729 3.433c1.258-0.149 2.453-0.483 3.565-0.977C29.417 4.2 28.4 5.2 27.1 6.125z"/></svg>
