<svg xmlns="http://www.w3.org/2000/svg" viewBox="0 0 28.939 29.768"><path d="M15.263 16.994l-1.396-1.084c-0.426-0.354-1.007-0.818-1.007-1.67c0-0.855 0.581-1.399 1.086-1.903 c1.626-1.28 3.251-2.642 3.251-5.513c0-2.952-1.856-4.504-2.748-5.241h2.4L19.368 0h-7.633c-2.094 0-5.111 0.496-7.32 2.3 c-1.666 1.437-2.479 3.418-2.479 5.2c0 3 2.3 6.1 6.4 6.098c0.389 0 0.813-0.038 1.238-0.078 c-0.191 0.466-0.386 0.854-0.386 1.515c0 1.2 0.6 1.9 1.2 2.637c-1.744 0.121-5 0.314-7.4 1.8 C0.694 20.8 0 22.8 0 24.215c0 2.9 2.7 5.6 8.3 5.553c6.662 0 10.189-3.688 10.189-7.336 C18.517 19.8 17 18.4 15.3 16.994z M10.188 12.529c-3.333 0-4.843-4.31-4.843-6.908c0-1.012 0.19-2.058 0.851-2.874 C6.818 2 7.9 1.5 8.9 1.465c3.214 0 4.9 4.3 4.9 7.143c0 0.7-0.077 1.939-0.969 2.8 C12.198 12.1 11.2 12.5 10.2 12.529z M10.227 28.14c-4.145 0-6.817-1.981-6.817-4.74c0-2.756 2.479-3.688 3.331-3.995 c1.626-0.548 3.72-0.623 4.067-0.623c0.388 0 0.6 0 0.9 0.039c2.946 2.1 4.2 3.1 4.2 5.1 C15.923 26.3 13.9 28.1 10.2 28.14z"/><polygon points="25,12.5 25,8.6 23.1,8.6 23.1,12.5 19.3,12.5 19.3,14.4 23.1,14.4 23.1,18.3 25,18.3 25,14.4 28.9,14.4 28.9,12.5"/></svg>
