<?xml version="1.0" encoding="utf-8"?>
<!-- Generator: Adobe Illustrator 15.0.0, SVG Export Plug-In . SVG Version: 6.00 Build 0)  -->
<!DOCTYPE svg PUBLIC "-//W3C//DTD SVG 1.1//EN" "http://www.w3.org/Graphics/SVG/1.1/DTD/svg11.dtd">
<svg version="1.1" id="Layer_1" xmlns="http://www.w3.org/2000/svg" xmlns:xlink="http://www.w3.org/1999/xlink" x="0px" y="0px"
	 width="28.939px" height="29.768px" viewBox="0 0 28.939 29.768" enable-background="new 0 0 28.939 29.768" xml:space="preserve">
<g id="g_x2B_">
	<g>
		<g>
			<path d="M15.263,16.994l-1.396-1.084c-0.426-0.354-1.007-0.818-1.007-1.67c0-0.855,0.581-1.399,1.086-1.903
				c1.626-1.28,3.251-2.642,3.251-5.513c0-2.952-1.856-4.504-2.748-5.241h2.4L19.368,0h-7.633c-2.094,0-5.111,0.496-7.32,2.32
				c-1.666,1.437-2.479,3.418-2.479,5.2c0,3.028,2.325,6.098,6.43,6.098c0.389,0,0.813-0.038,1.238-0.078
				c-0.191,0.466-0.386,0.854-0.386,1.515c0,1.201,0.618,1.939,1.163,2.637c-1.744,0.121-5,0.314-7.4,1.789
				C0.694,20.84,0,22.819,0,24.215c0,2.875,2.709,5.553,8.326,5.553c6.662,0,10.189-3.688,10.189-7.336
				C18.517,19.75,16.968,18.429,15.263,16.994z M10.188,12.529c-3.333,0-4.843-4.31-4.843-6.908c0-1.012,0.19-2.058,0.851-2.874
				C6.818,1.97,7.9,1.465,8.91,1.465c3.214,0,4.881,4.347,4.881,7.143c0,0.7-0.077,1.939-0.969,2.836
				C12.198,12.065,11.156,12.529,10.188,12.529z M10.227,28.14c-4.145,0-6.817-1.981-6.817-4.74c0-2.756,2.479-3.688,3.331-3.995
				c1.626-0.548,3.72-0.623,4.067-0.623c0.388,0,0.581,0,0.89,0.039c2.946,2.096,4.227,3.141,4.227,5.126
				C15.923,26.349,13.946,28.14,10.227,28.14z"/>
			<polygon points="25.047,12.47 25.047,8.589 23.129,8.589 23.129,12.47 19.253,12.47 19.253,14.408 23.129,14.408 23.129,18.313 
				25.047,18.313 25.047,14.408 28.939,14.408 28.939,12.47 			"/>
		</g>
	</g>
</g>
</svg>
