<?xml version="1.0" encoding="utf-8"?>
<!-- Generator: Adobe Illustrator 15.0.0, SVG Export Plug-In . SVG Version: 6.00 Build 0)  -->
<!DOCTYPE svg PUBLIC "-//W3C//DTD SVG 1.1//EN" "http://www.w3.org/Graphics/SVG/1.1/DTD/svg11.dtd">
<svg version="1.1" id="Layer_1" xmlns="http://www.w3.org/2000/svg" xmlns:xlink="http://www.w3.org/1999/xlink" x="0px" y="0px"
	 width="97px" height="27.623px" viewBox="0 0 97 27.623" enable-background="new 0 0 97 27.623" xml:space="preserve">
<g>
	<path d="M97,27.623h-3.73c-3.687,0-6.687-4.524-8.917-13.448C82.29,5.927,79.828,3,78.346,3c-1.481,0-3.943,2.927-6.006,11.175
		c-2.23,8.923-5.23,13.448-8.916,13.448s-6.687-4.524-8.918-13.448C52.444,5.927,49.982,3,48.5,3c-1.482,0-3.944,2.927-6.006,11.175
		c-2.23,8.923-5.23,13.448-8.917,13.448s-6.686-4.524-8.916-13.448C22.598,5.927,20.136,3,18.654,3s-3.944,2.927-6.006,11.175
		c-2.23,8.923-5.23,13.448-8.917,13.448H0v-3h3.73c1.482,0,3.945-2.927,6.007-11.175C11.968,4.524,14.968,0,18.654,0
		s6.686,4.524,8.917,13.448c2.062,8.249,4.524,11.175,6.006,11.175c1.482,0,3.945-2.927,6.007-11.175C41.814,4.524,44.814,0,48.5,0
		c3.687,0,6.687,4.524,8.916,13.448c2.063,8.249,4.525,11.175,6.008,11.175c1.481,0,3.943-2.927,6.006-11.175
		C71.66,4.524,74.66,0,78.346,0c3.687,0,6.687,4.524,8.917,13.448c2.063,8.249,4.524,11.175,6.007,11.175H97V27.623z"/>
</g>
</svg>
