<svg  xmlns="http://www.w3.org/2000/svg" viewBox="0 0 49.297 21.406999">
  <path d="m 2.4 20.3 c 0.1 0 0.2 -0.1 0.2 -0.2 L 3.1 15.7 2.6 11.3 C 2.6 11.2 2.5 11.1 2.4 11.1 c -0.1 0 -0.2 0.1 -0.2 0.2 0 0 -0.5 4.4 -0.5 4.4 l 0.5 4.3 c 0 0.1 0.1 0.2 0.2 0.2 z M 0.8 18.4 c 0 0 0 0 0 0 l 0 0 v -0 z m -0.2 0.2 c 0.1 0 0.2 -0.1 0.2 -0.2 L 1.2 15.7 0.8 13 C 0.7 12.9 0.7 12.8 0.6 12.8 c -0.1 0 -0.2 0.1 -0.2 0.2 L 0 15.7 0.4 18.4 c 0 0.1 0.1 0.2 0.2 0.2 z M 4.6 10.5 C 4.5 10.3 4.4 10.2 4.3 10.2 c -0.1 0 -0.2 0.1 -0.2 0.2 0 0 -0.5 5.3 -0.5 5.3 l 0.5 5.1 c 0 0.1 0.1 0.2 0.2 0.2 0.1 0 0.2 -0.1 0.2 -0.2 L 5.1 15.7 4.6 10.5 z m 1.7 10.8 c 0.1 0 0.3 -0.1 0.3 -0.3 l 0 0 0.5 -5.2 -0.5 -5.4 C 6.5 10.2 6.4 10.1 6.3 10.1 c -0.2 0 -0.3 0.1 -0.3 0.3 l -0.4 5.4 0.4 5.2 c 0 0.2 0.1 0.3 0.3 0.3 z m 2 0.1 c 0.2 0 0.3 -0.1 0.3 -0.3 V 21 L 9 15.7 8.6 10.7 C 8.6 10.5 8.4 10.4 8.2 10.4 c -0.2 0 -0.3 0.1 -0.3 0.3 l -0.4 5 0.4 5.3 c 0 0.2 0.2 0.3 0.3 0.3 z M 11 15.7 10.6 7.6 C 10.6 7.4 10.4 7.2 10.2 7.2 10 7.2 9.9 7.4 9.8 7.6 l -0.4 8.1 0.4 5.3 c 0 0.2 0.2 0.4 0.4 0.4 0.2 0 0.4 -0.2 0.4 -0.4 v 0 l 0.4 -5.3 z m 1.2 5.6 c 0.2 0 0.4 -0.2 0.4 -0.4 v 0 L 13 15.7 12.6 5.7 C 12.6 5.5 12.4 5.3 12.2 5.3 c -0.2 0 -0.4 0.2 -0.4 0.4 l -0.4 10 0.4 5.2 c 0 0.2 0.2 0.4 0.4 0.4 z M 14.2 4.4 c -0.2 0 -0.4 0.2 -0.5 0.5 l -0.3 10.8 0.3 5.2 c 0 0.3 0.2 0.5 0.5 0.5 0.2 0 0.4 -0.2 0.5 -0.5 l 0 0 0.4 -5.2 L 14.7 4.9 C 14.7 4.6 14.5 4.4 14.2 4.4 z m 2 16.9 c 0.3 0 0.5 -0.2 0.5 -0.5 l 0 0 0.3 -5.1 -0.3 -11.2 c -0 -0.3 -0.2 -0.5 -0.5 -0.5 -0.3 0 -0.5 0.2 -0.5 0.5 l -0.3 11.2 0.3 5.1 c 0 0.3 0.2 0.5 0.5 0.5 z m 2 -0 c 0.3 0 0.5 -0.2 0.5 -0.5 v 0 L 19.2 15.7 18.9 4.8 C 18.9 4.5 18.6 4.3 18.3 4.3 c -0.3 0 -0.5 0.2 -0.5 0.5 l -0.3 10.9 0.3 5.1 c 0 0.3 0.2 0.5 0.5 0.5 z M 21.3 15.7 21 5.2 c -0 -0.3 -0.3 -0.6 -0.6 -0.6 -0.3 0 -0.6 0.3 -0.6 0.6 l -0.3 10.5 0.3 5.1 c 0 0.3 0.3 0.6 0.6 0.6 0.3 0 0.6 -0.3 0.6 -0.6 v 0 l 0.3 -5.1 z m 1.2 5.7 c 0.3 0 0.6 -0.3 0.6 -0.6 v 0 L 23.4 15.7 23.1 3.2 C 23.1 2.9 22.8 2.6 22.5 2.6 c -0.3 0 -0.6 0.3 -0.6 0.6 L 21.6 15.7 c 0 0 0.2 5 0.2 5 0 0.3 0.3 0.6 0.6 0.6 z m 2.1 -20 c -0.4 0 -0.7 0.3 -0.7 0.7 l -0.3 13.7 0.3 5 c 0 0.4 0.3 0.7 0.7 0.7 0.4 0 0.7 -0.3 0.7 -0.7 v 0 L 25.5 15.7 25.2 2.1 C 25.2 1.7 24.9 1.4 24.5 1.4 z m 1.9 20 c 0 0 16.7 0 16.8 0 3.4 0 6.1 -2.7 6.1 -6.1 0 -3.3 -2.7 -6.1 -6.1 -6.1 -0.8 0 -1.6 0.2 -2.3 0.5 C 40.4 4.3 35.8 0 30.2 0 28.9 0 27.5 0.3 26.4 0.7 25.9 0.9 25.8 1.1 25.8 1.4 v 19.2 c 0 0.4 0.3 0.7 0.7 0.7 z"/>
</svg>
